<svg id="visual" viewBox="0 0 900 600" width="900" height="600" xmlns="http://www.w3.org/2000/svg" xmlns:xlink="http://www.w3.org/1999/xlink" version="1.1"><rect x="0" y="0" width="900" height="600" fill="#140021"></rect><path d="M0 249L47 249L47 278L95 278L95 344L142 344L142 353L189 353L189 306L237 306L237 375L284 375L284 259L332 259L332 305L379 305L379 320L426 320L426 362L474 362L474 382L521 382L521 343L568 343L568 306L616 306L616 332L663 332L663 299L711 299L711 337L758 337L758 311L805 311L805 332L853 332L853 264L900 264L900 340L900 601L900 601L853 601L853 601L805 601L805 601L758 601L758 601L711 601L711 601L663 601L663 601L616 601L616 601L568 601L568 601L521 601L521 601L474 601L474 601L426 601L426 601L379 601L379 601L332 601L332 601L284 601L284 601L237 601L237 601L189 601L189 601L142 601L142 601L95 601L95 601L47 601L47 601L0 601Z" fill="#9900ff"></path><path d="M0 481L47 481L47 482L95 482L95 451L142 451L142 388L189 388L189 457L237 457L237 474L284 474L284 407L332 407L332 337L379 337L379 379L426 379L426 442L474 442L474 433L521 433L521 485L568 485L568 366L616 366L616 437L663 437L663 434L711 434L711 369L758 369L758 457L805 457L805 347L853 347L853 423L900 423L900 464L900 601L900 601L853 601L853 601L805 601L805 601L758 601L758 601L711 601L711 601L663 601L663 601L616 601L616 601L568 601L568 601L521 601L521 601L474 601L474 601L426 601L426 601L379 601L379 601L332 601L332 601L284 601L284 601L237 601L237 601L189 601L189 601L142 601L142 601L95 601L95 601L47 601L47 601L0 601Z" fill="#7700c6"></path><path d="M0 563L47 563L47 519L95 519L95 486L142 486L142 490L189 490L189 432L237 432L237 528L284 528L284 499L332 499L332 422L379 422L379 514L426 514L426 426L474 426L474 445L521 445L521 502L568 502L568 501L616 501L616 465L663 465L663 559L711 559L711 471L758 471L758 463L805 463L805 483L853 483L853 488L900 488L900 536L900 601L900 601L853 601L853 601L805 601L805 601L758 601L758 601L711 601L711 601L663 601L663 601L616 601L616 601L568 601L568 601L521 601L521 601L474 601L474 601L426 601L426 601L379 601L379 601L332 601L332 601L284 601L284 601L237 601L237 601L189 601L189 601L142 601L142 601L95 601L95 601L47 601L47 601L0 601Z" fill="#560090"></path></svg>