<svg id="visual" viewBox="0 0 900 600" width="900" height="600" xmlns="http://www.w3.org/2000/svg" xmlns:xlink="http://www.w3.org/1999/xlink" version="1.1"><rect x="0" y="0" width="900" height="600" fill="#3c4979"></rect><path d="M0 477L129 457L257 441L386 493L514 518L643 460L771 519L900 455L900 601L771 601L643 601L514 601L386 601L257 601L129 601L0 601Z" fill="#871400"></path><path d="M0 530L129 526L257 524L386 530L514 487L643 510L771 493L900 495L900 601L771 601L643 601L514 601L386 601L257 601L129 601L0 601Z" fill="#9d2804"></path><path d="M0 494L129 528L257 514L386 479L514 511L643 527L771 529L900 535L900 601L771 601L643 601L514 601L386 601L257 601L129 601L0 601Z" fill="#b33b06"></path><path d="M0 524L129 512L257 544L386 556L514 537L643 514L771 504L900 534L900 601L771 601L643 601L514 601L386 601L257 601L129 601L0 601Z" fill="#c94d08"></path><path d="M0 534L129 569L257 559L386 549L514 535L643 554L771 540L900 528L900 601L771 601L643 601L514 601L386 601L257 601L129 601L0 601Z" fill="#df6009"></path><path d="M0 596L129 583L257 565L386 551L514 580L643 566L771 563L900 561L900 601L771 601L643 601L514 601L386 601L257 601L129 601L0 601Z" fill="#f5730a"></path></svg>