<?xml version="1.0" standalone="no"?><svg xmlns="http://www.w3.org/2000/svg" viewBox="0 0 1440 320"><path fill="#0099ff" fill-opacity="1" d="M0,96L10,90.7C20,85,40,75,60,106.7C80,139,100,213,120,240C140,267,160,245,180,208C200,171,220,117,240,117.3C260,117,280,171,300,202.7C320,235,340,245,360,245.3C380,245,400,235,420,213.3C440,192,460,160,480,133.3C500,107,520,85,540,64C560,43,580,21,600,37.3C620,53,640,107,660,117.3C680,128,700,96,720,112C740,128,760,192,780,224C800,256,820,256,840,256C860,256,880,256,900,250.7C920,245,940,235,960,197.3C980,160,1000,96,1020,106.7C1040,117,1060,203,1080,240C1100,277,1120,267,1140,240C1160,213,1180,171,1200,128C1220,85,1240,43,1260,69.3C1280,96,1300,192,1320,229.3C1340,267,1360,245,1380,208C1400,171,1420,117,1430,90.7L1440,64L1440,320L1430,320C1420,320,1400,320,1380,320C1360,320,1340,320,1320,320C1300,320,1280,320,1260,320C1240,320,1220,320,1200,320C1180,320,1160,320,1140,320C1120,320,1100,320,1080,320C1060,320,1040,320,1020,320C1000,320,980,320,960,320C940,320,920,320,900,320C880,320,860,320,840,320C820,320,800,320,780,320C760,320,740,320,720,320C700,320,680,320,660,320C640,320,620,320,600,320C580,320,560,320,540,320C520,320,500,320,480,320C460,320,440,320,420,320C400,320,380,320,360,320C340,320,320,320,300,320C280,320,260,320,240,320C220,320,200,320,180,320C160,320,140,320,120,320C100,320,80,320,60,320C40,320,20,320,10,320L0,320Z"></path></svg>